<mxfile host="app.diagrams.net" modified="2021-03-21T20:09:21.998Z" agent="5.0 (Windows NT 10.0; Win64; x64) AppleWebKit/537.36 (KHTML, like Gecko) Chrome/89.0.4389.90 Safari/537.36" etag="cNinroe9kFenlm44sANI" version="14.4.9" type="github">
  <diagram name="Page-1" id="edf60f1a-56cd-e834-aa8a-f176f3a09ee4">
    <mxGraphModel dx="1281" dy="649" grid="1" gridSize="10" guides="1" tooltips="1" connect="1" arrows="1" fold="1" page="1" pageScale="1" pageWidth="1100" pageHeight="850" background="#ffffff" math="0" shadow="0">
      <root>
        <mxCell id="0" />
        <mxCell id="1" parent="0" />
        <mxCell id="60e70716793133e9-4" value="Sing In" style="rounded=0;whiteSpace=wrap;html=1;shadow=1;labelBackgroundColor=none;strokeWidth=1;fontFamily=Verdana;fontSize=8;align=center;" parent="1" vertex="1">
          <mxGeometry x="270" y="120" width="120" height="60" as="geometry" />
        </mxCell>
        <mxCell id="60e70716793133e9-33" value="Yes" style="edgeStyle=orthogonalEdgeStyle;rounded=0;html=1;labelBackgroundColor=none;startSize=5;endArrow=classicThin;endFill=1;endSize=5;jettySize=auto;orthogonalLoop=1;strokeWidth=1;fontFamily=Verdana;fontSize=8" parent="1" source="60e70716793133e9-5" target="60e70716793133e9-7" edge="1">
          <mxGeometry x="-0.7116" y="15" relative="1" as="geometry">
            <mxPoint as="offset" />
          </mxGeometry>
        </mxCell>
        <mxCell id="60e70716793133e9-37" value="No" style="edgeStyle=orthogonalEdgeStyle;rounded=0;html=1;labelBackgroundColor=none;startSize=5;endArrow=classicThin;endFill=1;endSize=5;jettySize=auto;orthogonalLoop=1;strokeWidth=1;fontFamily=Verdana;fontSize=8;entryX=0;entryY=0.367;entryDx=0;entryDy=0;entryPerimeter=0;" parent="1" source="60e70716793133e9-5" target="9bFNuxdjmQAHWLrM7ZmA-5" edge="1">
          <mxGeometry x="-0.5294" y="10" relative="1" as="geometry">
            <mxPoint as="offset" />
            <mxPoint x="160" y="405" as="targetPoint" />
            <Array as="points">
              <mxPoint x="30" y="285" />
              <mxPoint x="30" y="42" />
            </Array>
          </mxGeometry>
        </mxCell>
        <mxCell id="60e70716793133e9-5" value="UserID and Password Correct?" style="rhombus;whiteSpace=wrap;html=1;rounded=0;shadow=1;labelBackgroundColor=none;strokeWidth=1;fontFamily=Verdana;fontSize=8;align=center;" parent="1" vertex="1">
          <mxGeometry x="40" y="220" width="140" height="90" as="geometry" />
        </mxCell>
        <mxCell id="9bFNuxdjmQAHWLrM7ZmA-20" style="edgeStyle=orthogonalEdgeStyle;rounded=0;orthogonalLoop=1;jettySize=auto;html=1;entryX=0;entryY=0.25;entryDx=0;entryDy=0;" edge="1" parent="1" source="60e70716793133e9-7" target="9bFNuxdjmQAHWLrM7ZmA-14">
          <mxGeometry relative="1" as="geometry" />
        </mxCell>
        <mxCell id="9bFNuxdjmQAHWLrM7ZmA-21" style="edgeStyle=orthogonalEdgeStyle;rounded=0;orthogonalLoop=1;jettySize=auto;html=1;entryX=0;entryY=0.5;entryDx=0;entryDy=0;" edge="1" parent="1" source="60e70716793133e9-7" target="9bFNuxdjmQAHWLrM7ZmA-15">
          <mxGeometry relative="1" as="geometry" />
        </mxCell>
        <mxCell id="9bFNuxdjmQAHWLrM7ZmA-22" style="edgeStyle=orthogonalEdgeStyle;rounded=0;orthogonalLoop=1;jettySize=auto;html=1;entryX=0;entryY=0.5;entryDx=0;entryDy=0;" edge="1" parent="1" source="60e70716793133e9-7" target="9bFNuxdjmQAHWLrM7ZmA-16">
          <mxGeometry relative="1" as="geometry" />
        </mxCell>
        <mxCell id="9bFNuxdjmQAHWLrM7ZmA-23" style="edgeStyle=orthogonalEdgeStyle;rounded=0;orthogonalLoop=1;jettySize=auto;html=1;entryX=0;entryY=0.5;entryDx=0;entryDy=0;" edge="1" parent="1" source="60e70716793133e9-7" target="9bFNuxdjmQAHWLrM7ZmA-17">
          <mxGeometry relative="1" as="geometry" />
        </mxCell>
        <mxCell id="9bFNuxdjmQAHWLrM7ZmA-24" style="edgeStyle=orthogonalEdgeStyle;rounded=0;orthogonalLoop=1;jettySize=auto;html=1;entryX=0;entryY=0.5;entryDx=0;entryDy=0;" edge="1" parent="1" source="60e70716793133e9-7" target="9bFNuxdjmQAHWLrM7ZmA-18">
          <mxGeometry relative="1" as="geometry" />
        </mxCell>
        <mxCell id="9bFNuxdjmQAHWLrM7ZmA-25" style="edgeStyle=orthogonalEdgeStyle;rounded=0;orthogonalLoop=1;jettySize=auto;html=1;entryX=0;entryY=0.5;entryDx=0;entryDy=0;" edge="1" parent="1" source="60e70716793133e9-7" target="9bFNuxdjmQAHWLrM7ZmA-19">
          <mxGeometry relative="1" as="geometry" />
        </mxCell>
        <mxCell id="60e70716793133e9-7" value="OPEN MENU INTERFACE:&lt;br&gt;&lt;br&gt;1-Check Balance&lt;br&gt;2-Insert Money&lt;br&gt;3-Withdraw Money&lt;br&gt;4-Transfer Money&lt;br&gt;5-Edit User Information&lt;br&gt;6-Log Out" style="rhombus;whiteSpace=wrap;html=1;rounded=0;shadow=1;labelBackgroundColor=none;strokeWidth=1;fontFamily=Verdana;fontSize=8;align=center;" parent="1" vertex="1">
          <mxGeometry x="235" y="220" width="245" height="222.5" as="geometry" />
        </mxCell>
        <mxCell id="9bFNuxdjmQAHWLrM7ZmA-9" style="edgeStyle=orthogonalEdgeStyle;rounded=0;orthogonalLoop=1;jettySize=auto;html=1;entryX=0.5;entryY=0;entryDx=0;entryDy=0;" edge="1" parent="1" source="9bFNuxdjmQAHWLrM7ZmA-4" target="60e70716793133e9-5">
          <mxGeometry relative="1" as="geometry" />
        </mxCell>
        <mxCell id="9bFNuxdjmQAHWLrM7ZmA-4" value="User Login" style="rounded=0;whiteSpace=wrap;html=1;shadow=1;labelBackgroundColor=none;strokeWidth=1;fontFamily=Verdana;fontSize=8;align=center;" vertex="1" parent="1">
          <mxGeometry x="90" y="120" width="120" height="60" as="geometry" />
        </mxCell>
        <mxCell id="9bFNuxdjmQAHWLrM7ZmA-6" style="edgeStyle=orthogonalEdgeStyle;rounded=0;orthogonalLoop=1;jettySize=auto;html=1;entryX=0.5;entryY=0;entryDx=0;entryDy=0;" edge="1" parent="1" source="9bFNuxdjmQAHWLrM7ZmA-5" target="9bFNuxdjmQAHWLrM7ZmA-4">
          <mxGeometry relative="1" as="geometry" />
        </mxCell>
        <mxCell id="9bFNuxdjmQAHWLrM7ZmA-7" style="edgeStyle=orthogonalEdgeStyle;rounded=0;orthogonalLoop=1;jettySize=auto;html=1;" edge="1" parent="1" source="9bFNuxdjmQAHWLrM7ZmA-5" target="60e70716793133e9-4">
          <mxGeometry relative="1" as="geometry" />
        </mxCell>
        <mxCell id="9bFNuxdjmQAHWLrM7ZmA-5" value="START!" style="rounded=0;whiteSpace=wrap;html=1;shadow=1;labelBackgroundColor=none;strokeWidth=1;fontFamily=Verdana;fontSize=8;align=center;" vertex="1" parent="1">
          <mxGeometry x="180" y="20" width="120" height="60" as="geometry" />
        </mxCell>
        <mxCell id="9bFNuxdjmQAHWLrM7ZmA-28" style="edgeStyle=orthogonalEdgeStyle;rounded=0;orthogonalLoop=1;jettySize=auto;html=1;entryX=0;entryY=0.5;entryDx=0;entryDy=0;" edge="1" parent="1" source="9bFNuxdjmQAHWLrM7ZmA-14" target="9bFNuxdjmQAHWLrM7ZmA-26">
          <mxGeometry relative="1" as="geometry" />
        </mxCell>
        <mxCell id="9bFNuxdjmQAHWLrM7ZmA-14" value="1-Check Balance" style="rounded=0;whiteSpace=wrap;html=1;shadow=1;labelBackgroundColor=none;strokeWidth=1;fontFamily=Verdana;fontSize=8;align=center;" vertex="1" parent="1">
          <mxGeometry x="380" y="480" width="120" height="60" as="geometry" />
        </mxCell>
        <mxCell id="9bFNuxdjmQAHWLrM7ZmA-36" style="edgeStyle=orthogonalEdgeStyle;rounded=0;orthogonalLoop=1;jettySize=auto;html=1;entryX=0;entryY=0.5;entryDx=0;entryDy=0;" edge="1" parent="1" source="9bFNuxdjmQAHWLrM7ZmA-15" target="9bFNuxdjmQAHWLrM7ZmA-34">
          <mxGeometry relative="1" as="geometry" />
        </mxCell>
        <mxCell id="9bFNuxdjmQAHWLrM7ZmA-15" value="2-Insert Money" style="rounded=0;whiteSpace=wrap;html=1;shadow=1;labelBackgroundColor=none;strokeWidth=1;fontFamily=Verdana;fontSize=8;align=center;" vertex="1" parent="1">
          <mxGeometry x="380" y="570" width="120" height="60" as="geometry" />
        </mxCell>
        <mxCell id="9bFNuxdjmQAHWLrM7ZmA-40" style="edgeStyle=orthogonalEdgeStyle;rounded=0;orthogonalLoop=1;jettySize=auto;html=1;entryX=0;entryY=0.75;entryDx=0;entryDy=0;" edge="1" parent="1" source="9bFNuxdjmQAHWLrM7ZmA-16" target="9bFNuxdjmQAHWLrM7ZmA-34">
          <mxGeometry relative="1" as="geometry" />
        </mxCell>
        <mxCell id="9bFNuxdjmQAHWLrM7ZmA-16" value="3-Withdraw Money" style="rounded=0;whiteSpace=wrap;html=1;shadow=1;labelBackgroundColor=none;strokeWidth=1;fontFamily=Verdana;fontSize=8;align=center;" vertex="1" parent="1">
          <mxGeometry x="380" y="720" width="120" height="60" as="geometry" />
        </mxCell>
        <mxCell id="9bFNuxdjmQAHWLrM7ZmA-46" style="edgeStyle=orthogonalEdgeStyle;rounded=0;orthogonalLoop=1;jettySize=auto;html=1;entryX=0;entryY=0.5;entryDx=0;entryDy=0;" edge="1" parent="1" source="9bFNuxdjmQAHWLrM7ZmA-17" target="9bFNuxdjmQAHWLrM7ZmA-41">
          <mxGeometry relative="1" as="geometry" />
        </mxCell>
        <mxCell id="9bFNuxdjmQAHWLrM7ZmA-17" value="4-Transfer Money" style="rounded=0;whiteSpace=wrap;html=1;shadow=1;labelBackgroundColor=none;strokeWidth=1;fontFamily=Verdana;fontSize=8;align=center;" vertex="1" parent="1">
          <mxGeometry x="380" y="820" width="120" height="60" as="geometry" />
        </mxCell>
        <mxCell id="9bFNuxdjmQAHWLrM7ZmA-18" value="5-Edit User Information" style="rounded=0;whiteSpace=wrap;html=1;shadow=1;labelBackgroundColor=none;strokeWidth=1;fontFamily=Verdana;fontSize=8;align=center;" vertex="1" parent="1">
          <mxGeometry x="380" y="1020" width="120" height="60" as="geometry" />
        </mxCell>
        <mxCell id="9bFNuxdjmQAHWLrM7ZmA-19" value="6-Log Out" style="rounded=0;whiteSpace=wrap;html=1;shadow=1;labelBackgroundColor=none;strokeWidth=1;fontFamily=Verdana;fontSize=8;align=center;" vertex="1" parent="1">
          <mxGeometry x="380" y="1245" width="120" height="60" as="geometry" />
        </mxCell>
        <mxCell id="9bFNuxdjmQAHWLrM7ZmA-26" value="See Balance" style="rounded=1;whiteSpace=wrap;html=1;" vertex="1" parent="1">
          <mxGeometry x="850" y="520" width="120" height="60" as="geometry" />
        </mxCell>
        <mxCell id="9bFNuxdjmQAHWLrM7ZmA-27" value="Return Menu" style="rounded=1;whiteSpace=wrap;html=1;" vertex="1" parent="1">
          <mxGeometry x="850" y="610" width="120" height="60" as="geometry" />
        </mxCell>
        <mxCell id="9bFNuxdjmQAHWLrM7ZmA-34" value="Enter Amount of money to Insert" style="rounded=1;whiteSpace=wrap;html=1;" vertex="1" parent="1">
          <mxGeometry x="540" y="640" width="120" height="60" as="geometry" />
        </mxCell>
        <mxCell id="9bFNuxdjmQAHWLrM7ZmA-47" style="edgeStyle=orthogonalEdgeStyle;rounded=0;orthogonalLoop=1;jettySize=auto;html=1;entryX=0;entryY=0.5;entryDx=0;entryDy=0;" edge="1" parent="1" source="9bFNuxdjmQAHWLrM7ZmA-41" target="9bFNuxdjmQAHWLrM7ZmA-43">
          <mxGeometry relative="1" as="geometry" />
        </mxCell>
        <mxCell id="9bFNuxdjmQAHWLrM7ZmA-41" value="To Who" style="rounded=1;whiteSpace=wrap;html=1;" vertex="1" parent="1">
          <mxGeometry x="480" y="900" width="120" height="60" as="geometry" />
        </mxCell>
        <mxCell id="9bFNuxdjmQAHWLrM7ZmA-42" value="Users object Data Updater&lt;br&gt;&lt;br&gt;*delete money from user&lt;br&gt;*add money to receiver&lt;br&gt;&lt;br&gt;GO TO MENU" style="rounded=1;whiteSpace=wrap;html=1;" vertex="1" parent="1">
          <mxGeometry x="1090" y="855" width="180" height="150" as="geometry" />
        </mxCell>
        <mxCell id="9bFNuxdjmQAHWLrM7ZmA-48" value="Yes" style="edgeStyle=orthogonalEdgeStyle;rounded=0;orthogonalLoop=1;jettySize=auto;html=1;entryX=0;entryY=0.5;entryDx=0;entryDy=0;fontFamily=Times New Roman;" edge="1" parent="1" source="9bFNuxdjmQAHWLrM7ZmA-43" target="9bFNuxdjmQAHWLrM7ZmA-44">
          <mxGeometry x="-0.5" y="20" relative="1" as="geometry">
            <mxPoint x="-1" as="offset" />
          </mxGeometry>
        </mxCell>
        <mxCell id="9bFNuxdjmQAHWLrM7ZmA-52" value="No" style="edgeStyle=orthogonalEdgeStyle;rounded=0;orthogonalLoop=1;jettySize=auto;html=1;fontFamily=Times New Roman;" edge="1" parent="1" source="9bFNuxdjmQAHWLrM7ZmA-43">
          <mxGeometry x="-0.7647" y="-10" relative="1" as="geometry">
            <mxPoint x="500" y="865" as="targetPoint" />
            <Array as="points">
              <mxPoint x="720" y="865" />
            </Array>
            <mxPoint x="11" y="10" as="offset" />
          </mxGeometry>
        </mxCell>
        <mxCell id="9bFNuxdjmQAHWLrM7ZmA-43" value="Receiver UserID and name corect?" style="rounded=1;whiteSpace=wrap;html=1;arcSize=0;" vertex="1" parent="1">
          <mxGeometry x="660" y="900" width="120" height="60" as="geometry" />
        </mxCell>
        <mxCell id="9bFNuxdjmQAHWLrM7ZmA-54" style="edgeStyle=orthogonalEdgeStyle;rounded=0;orthogonalLoop=1;jettySize=auto;html=1;fontFamily=Times New Roman;" edge="1" parent="1" source="9bFNuxdjmQAHWLrM7ZmA-44">
          <mxGeometry relative="1" as="geometry">
            <mxPoint x="1060" y="930" as="targetPoint" />
          </mxGeometry>
        </mxCell>
        <mxCell id="9bFNuxdjmQAHWLrM7ZmA-44" value="Enter Amount to Transfer" style="rounded=1;whiteSpace=wrap;html=1;arcSize=0;" vertex="1" parent="1">
          <mxGeometry x="900" y="900" width="120" height="60" as="geometry" />
        </mxCell>
      </root>
    </mxGraphModel>
  </diagram>
</mxfile>
